<?xml version="1.0" standalone="no"?>
<!DOCTYPE svg PUBLIC "-//W3C//DTD SVG 20010904//EN"
 "http://www.w3.org/TR/2001/REC-SVG-20010904/DTD/svg10.dtd">
<svg version="1.0" xmlns="http://www.w3.org/2000/svg"
 width="385.000000pt" height="385.000000pt" viewBox="0 0 385.000000 385.000000"
 preserveAspectRatio="xMidYMid meet">
<metadata>
Created by potrace 1.11, written by Peter Selinger 2001-2013
</metadata>
<g transform="translate(0.000000,385.000000) scale(0.100000,-0.100000)"
fill="#000000" stroke="none">
<path d="M1695 3825 c-385 -71 -729 -339 -895 -698 -81 -176 -115 -347 -107
-542 7 -176 38 -293 154 -590 123 -312 381 -831 610 -1225 31 -52 81 -138 111
-190 50 -87 201 -338 299 -499 22 -36 44 -66 49 -68 6 -2 42 50 80 114 39 65
104 172 144 238 76 124 247 420 325 560 360 652 591 1172 661 1495 39 175 20
407 -48 600 -87 246 -257 468 -466 608 -139 93 -240 138 -412 184 -101 27
-388 34 -505 13z m359 -873 c113 -44 203 -140 237 -254 92 -302 -197 -587
-493 -487 -318 107 -371 536 -87 706 106 64 237 77 343 35z"/>
</g>
</svg>
